<?xml version="1.0" standalone="yes"?>
<svg width="338" height="301">
<path style="fill:#ffffff; stroke:none;" d="M0 0L0 272L336 272L337 298L338 298L338 0L169 0C176.823 11.105 188.4 20.3997 198 30C202.021 34.021 206.528 40.3791 212 42.3966C223.809 46.7505 243.401 43 256 43C256 54.9654 251.67 77.2847 257.028 88C260.919 95.7818 269.98 100.873 275 108L215 104L215 126L256 126L259 133L259 134C254.163 138.737 256 147.642 256 154C262.453 149.454 274.644 139.944 276 132L285 132L260 160L275 160C269.98 167.127 260.919 172.218 257.028 180C251.777 190.502 256 212.277 256 224L225 224L210 226.318L180 256L168 265.944L156 256L126 226.318L111 224L80 224C80 212.277 84.2234 190.502 78.9722 180C75.0813 172.218 66.0201 167.127 61 160L76 160C71.151 153.116 41.1238 131.07 61 131L59 133L59 134L80 154C80 147.642 81.8369 138.737 77 134L77 133L80 126L117 126L117 103L99 103.314L89 107.732L61 108C66.0201 100.873 75.0814 95.7817 78.9722 88C84.3299 77.2847 80 54.9654 80 43C92.5989 43 112.191 46.7505 124 42.3966C129.472 40.3791 133.979 34.021 138 30C147.6 20.3998 159.177 11.105 167 0L0 0z"/>
<path style="fill:#b98930; stroke:none;" d="M61 108C70.5936 108 92.2433 111.642 97 102L74 102L144 32C148.778 27.2222 161.028 10.0587 168 10.0556C171.487 10.054 175.28 15.0847 178 17L181 13C178.51 9.4657 172.088 0.077179 167 1.34567C157.995 3.59052 146.515 20.4851 140 27L86 81C77.9896 89.0104 65.8151 97.6746 61 108z"/>
<path style="fill:#ffffff; stroke:none;" d="M133 43C144.311 42.9601 150.503 33.4956 158 26C160.391 23.6095 164.247 18.0556 168 18.0556C171.753 18.0556 175.609 23.6096 178 26C185.497 33.4956 191.689 42.9601 203 43L178 17L168 9.20679L158 17L133 43z"/>
<path style="fill:#cca540; stroke:none;" d="M180 13C177.618 18.8683 182.022 22.0079 186 26C191.96 20.8375 185.383 15.5107 180 13z"/>
<path style="fill:#070707; stroke:none;" d="M158 26L181 29C173.297 18.0643 166.616 13.77 158 26z"/>
<path style="fill:#e3c554; stroke:none;" d="M190 22C185.176 29.4914 199.509 43.8239 207 39L207 38L190 22z"/>
<path style="fill:#ffffff; stroke:none;" d="M150 43L186 43C182.885 38.5786 173.872 26.2068 168 26.2068C162.128 26.2068 153.115 38.5786 150 43z"/>
<path style="fill:#1c1c1c; stroke:none;" d="M144 40C154.222 39.9921 160.221 34.2044 166 26C155.778 26.0079 149.779 31.7956 144 40z"/>
<path style="fill:#2b2b2b; stroke:none;" d="M173 29C179.282 37.9177 186.741 45.9913 198 46C191.718 37.0823 184.259 29.0087 173 29z"/>
<path style="fill:#f4e17f; stroke:none;" d="M203 42L203 43L247 87L248 87L252 84C242.887 71.0625 229.189 60.1878 218 49C213.541 44.5416 209.417 37.8681 203 42z"/>
<path style="fill:#3f3f3f; stroke:none;" d="M133 51C141.995 50.9931 146.812 47.3654 152 40C143.005 40.007 138.188 43.6346 133 51z"/>
<path style="fill:#010101; stroke:none;" d="M80 43L80 49C92.2336 49 116.123 53.8192 124 43L80 43z"/>
<path style="fill:#0f0f0f; stroke:none;" d="M120 56C129.272 55.9673 134.807 50.3721 140 43C130.728 43.0327 125.193 48.6279 120 56z"/>
<path style="fill:#060606; stroke:none;" d="M144 49L192 49C184.799 39.1086 151.201 39.1086 144 49M196 43C200.375 49.2056 204.424 51.9733 212 52C207.625 45.7944 203.576 43.0268 196 43z"/>
<path style="fill:#010101; stroke:none;" d="M212 43C219.877 53.8192 243.766 49 256 49L256 43L212 43z"/>
<path style="fill:#414141; stroke:none;" d="M190 46C194.716 52.6904 198.968 54.9938 207 55C202.284 48.3096 198.032 46.0062 190 46z"/>
<path style="fill:#121212; stroke:none;" d="M80 49L80 59C94.5522 59 108.634 62.2944 118 49L80 49z"/>
<path style="fill:#212121; stroke:none;" d="M133 60L203 60C200.413 56.3269 197.116 52.0858 193 50.0278C188.12 47.5877 180.329 49 175 49C158.923 49 143.348 45.3098 133 60z"/>
<path style="fill:#121212; stroke:none;" d="M218 49C227.366 62.2944 241.448 59 256 59L256 49L218 49z"/>
<path style="fill:#5d5d5d; stroke:none;" d="M122 62C130.995 61.9931 135.812 58.3654 141 51C132.005 51.0069 127.188 54.6346 122 62z"/>
<path style="fill:#191919; stroke:none;" d="M205 52C209.375 58.2056 213.424 60.9733 221 61C216.625 54.7944 212.576 52.0267 205 52z"/>
<path style="fill:#5a5a5a; stroke:none;" d="M199 55C203.453 61.2997 207.502 62.9942 215 63C210.547 56.7003 206.498 55.0058 199 55z"/>
<path style="fill:#2d2d2d; stroke:none;" d="M105 71C114.974 70.9648 121.467 63.8551 127 56C117.026 56.0352 110.533 63.1449 105 71M80 59L80 68C91.6716 68 100.553 69.564 108 59L80 59M228 59C235.447 69.564 244.328 68 256 68L256 59L228 59z"/>
<path style="fill:#393939; stroke:none;" d="M122 71L214 71C211.275 67.1319 207.605 62.3011 203 60.6034C196.818 58.3242 187.538 60 181 60C161.919 60 134.213 53.6625 122 71z"/>
<path style="fill:#333333; stroke:none;" d="M214 61C218.375 67.2056 222.424 69.9733 230 70C225.625 63.7944 221.576 61.0267 214 61z"/>
<path style="fill:#767676; stroke:none;" d="M114 70C121.498 69.9942 125.547 68.2997 130 62C122.502 62.0058 118.453 63.7003 114 70z"/>
<path style="fill:#717171; stroke:none;" d="M207 63C211.453 69.2997 215.502 70.9942 223 71C218.547 64.7003 214.498 63.0058 207 63z"/>
<path style="fill:#515151; stroke:none;" d="M80 68L80 79C88.9949 78.9931 93.8117 75.3654 99 68L80 68M237 68C242.188 75.3654 247.005 78.9931 256 79L256 68L237 68z"/>
<path style="fill:#8e8e8e; stroke:none;" d="M105 79C113.032 78.9938 117.284 76.6904 122 70C113.968 70.0062 109.716 72.3096 105 79z"/>
<path style="fill:#515151; stroke:none;" d="M223 70C227.375 76.2056 231.424 78.9733 239 79C234.625 72.7944 230.576 70.0267 223 70M98 78C104.536 77.9769 108.122 76.4401 112 71C105.464 71.0231 101.878 72.5599 98 78z"/>
<path style="fill:#595959; stroke:none;" d="M115 78L221 78C214.849 69.3704 206.564 71 197 71L139 71C129.436 71 121.151 69.3703 115 78z"/>
<path style="fill:#888888; stroke:none;" d="M215 71C219.453 77.2997 223.502 78.9942 231 79C226.547 72.7003 222.498 71.0058 215 71z"/>
<path style="fill:#7a7a7a; stroke:none;" d="M85 91C94.2715 90.9673 99.807 85.3721 105 78C95.7285 78.0327 90.193 83.6279 85 91z"/>
<path style="fill:#6b6b6b; stroke:none;" d="M111 82L225 82C219.692 75.6279 208.612 78 201 78L136 78C128.216 78 116.422 75.4902 111 82M80 79L80 87L88 79L80 79z"/>
<path style="fill:#a4a4a4; stroke:none;" d="M100 84C105.693 83.9956 109.368 83.7675 113 79C107.307 79.0044 103.632 79.2325 100 84z"/>
<path style="fill:#a8a8a8; stroke:none;" d="M223 79C227.453 85.2997 231.502 86.9942 239 87C234.547 80.7003 230.498 79.0058 223 79z"/>
<path style="fill:#737373; stroke:none;" d="M232 79C236.132 84.8452 239.927 86.975 247 87C242.868 81.1548 239.073 79.025 232 79z"/>
<path style="fill:#6b6b6b; stroke:none;" d="M248 79L256 87L256 79L248 79z"/>
<path style="fill:#868686; stroke:none;" d="M103 90L233 90C225.731 79.7174 215.302 82 204 82L132 82C120.698 82 110.269 79.7173 103 90z"/>
<path style="fill:#cdcdcd; stroke:none;" d="M88 96C97.4292 95.9927 102.602 91.6637 108 84C98.5708 84.0073 93.3984 88.3363 88 96z"/>
<path style="fill:#e4c755; stroke:none;" d="M262 102L239 102C243.757 111.642 265.406 108 275 108C271.81 101.16 260.279 87.8083 253.02 85.1759C244.415 82.0554 254.702 94.6987 255.995 95.9954L262 102z"/>
<path style="fill:#c0c0c0; stroke:none;" d="M231 87L238 95L213 95L215 104L239 104L238 102L256 102L256 96L231 87z"/>
<path style="fill:#929292; stroke:none;" d="M240 87C244.375 93.2056 248.424 95.9733 256 96C251.625 89.7944 247.576 87.0267 240 87z"/>
<path style="fill:#9e9e9e; stroke:none;" d="M99 94L238 95C231.903 86.9969 218.123 90 209 90L130 90C121.235 90 105.052 86.7346 99 94z"/>
<path style="fill:#a4a4a4; stroke:none;" d="M80 96C85.3684 95.981 88.6227 95.4331 92 91C86.6316 91.019 83.3773 91.5669 80 96z"/>
<path style="fill:#b5b5b5; stroke:none;" d="M95 98C103.461 98 118.145 101.029 124 94C115.539 94 100.855 90.9709 95 98z"/>
<path style="fill:#030303; stroke:none;" d="M117 158L215 158L215 110C215 103.2 216.466 95.322 208 94L210 109C194.183 108.998 185.68 99.079 169 105L164 100L169.326 109.292L184 106.558L208 113L208 122L213 122C212.995 129.364 207.556 152.261 197.054 151.836C194.956 151.752 192.729 148.151 191 147L192 153C187.917 153 181.946 154.086 178.29 151.972C171.048 147.786 171.463 136.379 164.61 132.028C161.984 130.36 157.959 131 155 131C139.866 130.999 133.265 138.031 129 153L118 153L127.571 134L128 94C123.132 94.7511 118.586 97.9433 117.318 103C113.232 119.289 117 141.175 117 158z"/>
<path style="fill:#f4df78; stroke:none;" d="M128 94L128 104C137.598 104 145.732 106.145 150 96L151 96L148 105L158 105L157 101L164 104L164 100L183.834 100.475L210 109L208 94L128 94z"/>
<path style="fill:#ffffff; stroke:none;" d="M79 96L74 102L80 102L79 96z"/>
<path style="fill:#c0c0c0; stroke:none;" d="M80 96L80 102L87 96L80 96z"/>
<path style="fill:#e5e5e5; stroke:none;" d="M82 102C88.3238 101.995 92.1014 101.355 96 96C89.6762 96.0049 85.8986 96.6451 82 102z"/>
<path style="fill:#e5c964; stroke:none;" d="M150 96C144.408 105.402 138.065 104 128 104L128 122L136 120L137 120L138 120C143.871 126.71 150.405 116.039 152 111L154 111C156.578 118.012 163 115.5 169 115.09C181.885 114.207 195.084 115 208 115L208 113L186 106.673L170.184 109.019L157 101L158 105L148 105L150 96z"/>
<path style="fill:#ffffff; stroke:none;" d="M256 96L256 102L262 102L256 96z"/>
<path style="fill:#cacaca; stroke:none;" d="M91 102C100.223 102.19 113.968 106.917 120 98C111.539 98 96.8549 94.9709 91 102z"/>
<path style="fill:#cebc65; stroke:none;" d="M178 100L178 101L186 101L178 100z"/>
<path style="fill:#60572f; stroke:none;" d="M178 101L178 102L186 102L178 101z"/>
<path style="fill:#d7c192; stroke:none;" d="M82 102L82 103L89 103L82 102z"/>
<path style="fill:#403728; stroke:none;" d="M97 102L98 103L97 102z"/>
<path style="fill:#484224; stroke:none;" d="M188 102L188 103L191 103L188 102z"/>
<path style="fill:#494531; stroke:none;" d="M238 102L239 103L238 102z"/>
<path style="fill:#eee2a6; stroke:none;" d="M247 102L247 103L254 103L247 102z"/>
<path style="fill:#6e6436; stroke:none;" d="M191.667 103.333L192.333 103.667L191.667 103.333z"/>
<path style="fill:#b3a155; stroke:none;" d="M169 104L169 105L172 105L169 104z"/>
<path style="fill:#63582e; stroke:none;" d="M199 108L199 109L206 109L199 108z"/>
<path style="fill:#968444; stroke:none;" d="M152.667 111.333L153.333 111.667L152.667 111.333z"/>
<path style="fill:#453d20; stroke:none;" d="M152.667 112.333L153.333 112.667L152.667 112.333z"/>
<path style="fill:#030303; stroke:none;" d="M147 122L152 119L159 122C155.29 112.996 150.111 111.436 147 122z"/>
<path style="fill:#d6b352; stroke:none;" d="M156 116L160 123L152 119C149.967 121.26 148.819 122.369 146 121L138 120L137 120L136 120L128 122L128 130L134 127L133 130C143.549 130 165.3 134.094 174 128L180 130L178 125C187.067 128.934 194.105 129 204 129L204 133C211.8 132.907 212.975 129.253 213 122L208 122L208 115L156 116z"/>
<path style="fill:#4f4421; stroke:none;" d="M157.333 118.667L157.667 119.333L157.333 118.667z"/>
<path style="fill:#594c24; stroke:none;" d="M146 121L149 123L149 122L146 121z"/>
<path style="fill:#3a3218; stroke:none;" d="M159 121L157 122L157 123L159 121z"/>
<path style="fill:#030303; stroke:none;" d="M178 125C180.095 134.129 198.728 141.628 203 131L184 131L178 125z"/>
<path style="fill:#efefef; stroke:none;" d="M80 126L78 133L117 133L117 126L80 126M215 126L215 133L258 133L256 126L215 126z"/>
<path style="fill:#c19639; stroke:none;" d="M132 127L128 130L118 153L129 153L141 130L133 130L134 127L132 127z"/>
<path style="fill:#c09437; stroke:none;" d="M173 128L164 130C167.095 135.877 172.09 149.564 178.34 152.397C182.068 154.087 187.972 153 192 153L191 147L196 152C204.44 149.988 209.277 141.215 210 133L204 133L204 129L184 129L184 130L203 130C198.418 142.463 180.298 131.187 173 128z"/>
<path style="fill:#705c28; stroke:none;" d="M141 130L141 131L164 131L141 130z"/>
<path style="fill:#675525; stroke:none;" d="M184 130L184 131L203 131L184 130z"/>
<path style="fill:#665021; stroke:none;" d="M212 130L209 139L210 139L212 130z"/>
<path style="fill:#c9c9c9; stroke:none;" d="M70 145L59 134L59 133L61 131C42.7159 131.014 59.6631 144.992 70 145z"/>
<path style="fill:#51421d; stroke:none;" d="M140.333 131.667L140.667 132.333L140.333 131.667z"/>
<path style="fill:#c9c9c9; stroke:none;" d="M276 132L270 141C277.175 140.994 282.841 139.688 285 132L276 132z"/>
<path style="fill:#d0d0d0; stroke:none;" d="M77 133L80 142L117 142L117 133L77 133z"/>
<path style="fill:#dddddd; stroke:none;" d="M215 133L215 139L256 139L259 133L215 133z"/>
<path style="fill:#bc8e32; stroke:none;" d="M133 153L173 153C170.716 148.165 167.009 139.066 162.505 136.028C148.959 126.888 136.981 142.126 133 153z"/>
<path style="fill:#b2b2b2; stroke:none;" d="M215 139L215 146L256 146L256 139L215 139z"/>
<path style="fill:#a9a9a9; stroke:none;" d="M261 150C269.032 149.994 273.284 147.69 278 141C269.968 141.006 265.716 143.31 261 150z"/>
<path style="fill:#a7a7a7; stroke:none;" d="M80 142L80 149L117 149L117 142L80 142z"/>
<path style="fill:#a5a5a5; stroke:none;" d="M62 145C66.4533 151.3 70.5019 152.994 78 153C73.5467 146.7 69.4981 145.006 62 145z"/>
<path style="fill:#554017; stroke:none;" d="M173 146L175 149L173 146z"/>
<path style="fill:#7a7a7a; stroke:none;" d="M215 146L215 158L117 158L117 149L80 149L80 154L70 153C78.2823 164.619 101.87 162 115 162L226 162C240.891 162 259.751 163.128 269 150C263.572 150.004 260.252 150.404 256 154L256 146L215 146z"/>
<path style="fill:#3b2d11; stroke:none;" d="M131 147L130 150L131 147z"/>
<path style="fill:#382a0f; stroke:none;" d="M194 149L199 153L199 152L194 149z"/>
<path style="fill:#b9892e; stroke:none;" d="M207 150L205 153C207.251 152.527 208.118 152.14 207 150z"/>
<path style="fill:#e9cd58; stroke:none;" d="M61 160C63.9529 166.332 70.0726 173.758 77 169L77 168L74 165L97 165C90.2299 156.114 71.2372 160 61 160z"/>
<path style="fill:#bb8c32; stroke:none;" d="M239 165L262 165L195 232C188.678 238.322 177.695 254.51 169 256.793C164.546 257.963 158.958 249.846 155 248L152 251C154.065 255.429 163.282 268.08 169 266.654C178.005 264.409 189.485 247.515 196 241L250 187C258.01 178.99 270.185 170.325 275 160C264.763 160 245.77 156.114 239 165z"/>
<path style="fill:#696969; stroke:none;" d="M96 162L97 165L82 165C86.4533 171.3 90.502 172.994 98 173L96 170L240 170L234 177C243.429 176.993 248.602 172.664 254 165L239 165L241 162L96 162z"/>
<path style="fill:#ffffff; stroke:none;" d="M74 165L80 171L80 165L74 165z"/>
<path style="fill:#5b5b5b; stroke:none;" d="M80 165C80.1517 177.845 88.7703 176.404 97 181.603C104.919 186.606 106.878 191.992 117 192L102 176L204 176C215.017 176 232.821 179.86 240 170L96 170L98 173L80 165z"/>
<path style="fill:#4d4d4d; stroke:none;" d="M102 176C108.246 183.498 125.921 180 135 180L230 180L213 198C224.943 197.991 228.184 189.924 237 183.318C245.316 177.086 255.834 179.019 256 165L241 176.393L229 176.015L200 176L102 176z"/>
<path style="fill:#ffffff; stroke:none;" d="M256 165L256 171L262 165L256 165z"/>
<path style="fill:#f4e17f; stroke:none;" d="M72 172L99 200L127 227C131.121 219.835 124.958 215.958 120 211L88 179C82.912 173.912 79.3549 168.193 72 172z"/>
<path style="fill:#262626; stroke:none;" d="M89 180C93.0496 185.749 99.6285 193.773 106 196.972C108.888 198.422 112.19 197.828 115 199.603C122.919 204.606 124.878 209.992 135 210L130 204L206 204L192 219C203.027 218.991 205.801 212.462 214 206.318C217.394 203.775 221.531 204.588 225 202.397C232.578 197.609 240.865 188.289 246 181C231.456 181.051 227.544 197.949 213 198L221 189L115 189L117 192L89 180z"/>
<path style="fill:#3e3e3e; stroke:none;" d="M106 180C113.79 191.05 123.837 189 136 189L202 189C213.683 189 222.55 190.568 230 180L106 180z"/>
<path style="fill:#383838; stroke:none;" d="M80 181L80 192L91 192L80 181z"/>
<path style="fill:#161616; stroke:none;" d="M255 181L225 212L256 212L255 181z"/>
<path style="fill:#242424; stroke:none;" d="M80 192L80 202L101 202C95.0458 193.548 89.8337 192 80 192z"/>
<path style="fill:#0c0c0c; stroke:none;" d="M107 198C112.789 206.218 122.463 217.003 131 222.397C138.031 226.838 143.432 227.433 150 234C153.85 237.85 162.186 249.793 168 249.793C173.359 249.793 180.489 239.511 184 236C196.591 223.409 212.17 219.374 223 204C209.445 204.048 205.555 218.952 192 219L206 204L130 204L135 210L107 198z"/>
<path style="fill:#070707; stroke:none;" d="M80 202L80 224L123 224C118.265 217.278 108.865 205.503 101 202.603C95.0647 200.415 86.2824 202 80 202z"/>
<path style="fill:#030303; stroke:none;" d="M213 224L256 224L256 212C239.03 212 223.914 208.506 213 224z"/>
<path style="fill:#d8b64b; stroke:none;" d="M130 222C124.556 230.674 148.307 255.234 156 248L156 247L130 222z"/>
<path style="fill:#ffffff; stroke:none;" d="M133 224L158 250L168 257.793L178 250L203 224C191.689 224.04 185.497 233.504 178 241C175.609 243.39 171.753 248.944 168 248.944C164.247 248.944 160.391 243.39 158 241C150.503 233.504 144.311 224.04 133 224M150 224C153.115 228.421 162.128 240.793 168 240.793C173.872 240.793 182.885 228.421 186 224L150 224z"/>
<path style="fill:#f2db74; stroke:none;" d="M0 272L0 281L336 281L336 272L0 272z"/>
<path style="fill:#dbba58; stroke:none;" d="M0 281L0 286L336 286L336 281L0 281z"/>
<path style="fill:#d0aa4b; stroke:none;" d="M0 286L0 293L336 293L336 286L0 286z"/>
<path style="fill:#be9034; stroke:none;" d="M0 293L0 301L229 301L301 301L338 300L336 293L0 293z"/>
<path style="fill:#ffffff; stroke:none;" d="M336.667 300.333L337.333 300.667L336.667 300.333z"/>
</svg>
